<?xml version="1.0" encoding="UTF-8" standalone="no"?><!DOCTYPE svg PUBLIC "-//W3C//DTD SVG 1.1//EN" "http://www.w3.org/Graphics/SVG/1.1/DTD/svg11.dtd"><svg width="100%" height="100%" viewBox="0 0 767 235" version="1.1" xmlns="http://www.w3.org/2000/svg" xmlns:xlink="http://www.w3.org/1999/xlink" xml:space="preserve" xmlns:serif="http://www.serif.com/" style="fill-rule:evenodd;clip-rule:evenodd;stroke-linejoin:round;stroke-miterlimit:2;"><g><g><g><path d="M11.2,145.129c-7.467,-8.533 -11.2,-19.667 -11.2,-33.4c0,-13.733 3.733,-24.867 11.2,-33.4c7.467,-8.533 17.2,-12.8 29.2,-12.8c9.733,0 17.7,2.6 23.9,7.8c6.2,5.2 10.1,12.133 11.7,20.8l-15.4,0c-1.067,-4.8 -3.367,-8.567 -6.9,-11.3c-3.533,-2.733 -7.967,-4.1 -13.3,-4.1c-7.6,0 -13.7,3.067 -18.3,9.2c-4.6,6.133 -6.9,14.067 -6.9,23.8c0,9.733 2.3,17.667 6.9,23.8c4.6,6.133 10.7,9.2 18.3,9.2c5.333,0 9.767,-1.367 13.3,-4.1c3.533,-2.733 5.833,-6.5 6.9,-11.3l15.4,0c-1.6,8.667 -5.5,15.6 -11.7,20.8c-6.2,5.2 -14.167,7.8 -23.9,7.8c-12,0 -21.733,-4.267 -29.2,-12.8Z" style="fill:#fff;fill-rule:nonzero;"/><path d="M190.8,156.129l0,-88.8l15,0l0,11.2c2.8,-3.733 6.5,-6.833 11.1,-9.3c4.6,-2.467 9.633,-3.7 15.1,-3.7c9.867,0 17.533,2.933 23,8.8c5.467,5.867 8.2,13.733 8.2,23.6l0,58.2l-15.2,0l0,-55.8c0,-6.4 -1.633,-11.5 -4.9,-15.3c-3.267,-3.8 -8.167,-5.7 -14.7,-5.7c-5.2,0 -9.867,1.567 -14,4.7c-4.133,3.133 -7,7.1 -8.6,11.9l0,60.2l-15,0Z" style="fill:#fff;fill-rule:nonzero;"/><path d="M288.6,156.129l0,-88.8l15,0l0,11.2c2.8,-3.733 6.5,-6.833 11.1,-9.3c4.6,-2.467 9.633,-3.7 15.1,-3.7c9.867,0 17.533,2.933 23,8.8c5.467,5.867 8.2,13.733 8.2,23.6l0,58.2l-15.2,0l0,-55.8c0,-6.4 -1.633,-11.5 -4.9,-15.3c-3.267,-3.8 -8.167,-5.7 -14.7,-5.7c-5.2,0 -9.867,1.567 -14,4.7c-4.133,3.133 -7,7.1 -8.6,11.9l0,60.2l-15,0Z" style="fill:#fff;fill-rule:nonzero;"/><path d="M442.4,129.529l14.2,0c-1.6,8.667 -5.533,15.567 -11.8,20.7c-6.267,5.133 -14.267,7.7 -24,7.7c-12.133,0 -21.967,-4.233 -29.5,-12.7c-7.533,-8.467 -11.3,-19.567 -11.3,-33.3c0,-13.467 3.733,-24.567 11.2,-33.3c7.467,-8.733 17.2,-13.1 29.2,-13.1c11.867,0 21.067,3.967 27.6,11.9c6.533,7.933 9.8,18.5 9.8,31.7l0,5.4l-62.8,0c0.133,9.333 2.567,16.767 7.3,22.3c4.733,5.533 10.9,8.3 18.5,8.3c5.6,0 10.3,-1.367 14.1,-4.1c3.8,-2.733 6.3,-6.567 7.5,-11.5Zm-21.8,-51.2c-6.667,0 -12.267,2.2 -16.8,6.6c-4.533,4.4 -7.333,10.467 -8.4,18.2l47.2,0c-0.133,-7.067 -2.067,-12.967 -5.8,-17.7c-3.733,-4.733 -9.133,-7.1 -16.2,-7.1Z" style="fill:#fff;fill-rule:nonzero;"/><path d="M523.4,66.929l0,15.4c-2.4,-1.6 -5.733,-2.4 -10,-2.4c-4.8,0 -9.067,1.467 -12.8,4.4c-3.733,2.933 -6.333,7 -7.8,12.2l0,59.6l-15,0l0,-88.8l15,0l0,11.6c2,-3.867 4.967,-7.067 8.9,-9.6c3.933,-2.533 8.3,-3.8 13.1,-3.8c3.867,0 6.733,0.467 8.6,1.4Z" style="fill:#fff;fill-rule:nonzero;"/><path d="M612.2,156.129l-17.4,0l-30.4,-80.2l0,80.2l-24,0l5.867,-122.8l32.356,-1.956l24.977,88.556l34.556,-90.511l41.734,9.778l-13.69,116.933l-24.2,0l0,-80.2l-29.8,80.2Z" style="fill:#fff;fill-rule:nonzero;"/><path d="M743.2,126.929l23,0c-1.6,9.733 -5.833,17.367 -12.7,22.9c-6.867,5.533 -15.833,8.3 -26.9,8.3c-12.933,0 -23.4,-4.3 -31.4,-12.9c-8,-8.6 -12,-19.833 -12,-33.7c0,-13.467 4.033,-24.633 12.1,-33.5c8.067,-8.867 18.367,-13.3 30.9,-13.3c12.8,0 22.767,4.033 29.9,12.1c7.133,8.067 10.7,18.833 10.7,32.3l0,7.6l-59.6,0c0.4,6.667 2.333,11.9 5.8,15.7c3.467,3.8 8,5.7 13.6,5.7c9.067,0 14.6,-3.733 16.6,-11.2Zm-16.8,-42c-10.133,0 -16.333,5.6 -18.6,16.8l34.6,0c-0.133,-4.933 -1.6,-8.967 -4.4,-12.1c-2.8,-3.133 -6.667,-4.7 -11.6,-4.7Z" style="fill:#fff;fill-rule:nonzero;"/></g><g><path d="M128.537,56.1c-21.457,0.816 -38.16,18.839 -38.03,40.887c0.213,20.49 20.861,46.707 33.114,60.378c2.36,2.596 5.518,3.89 8.906,3.761c3.388,-0.128 6.434,-1.8 8.596,-4.426c11.175,-14.703 29.92,-42.274 28.436,-62.716c-1.542,-21.995 -19.565,-38.699 -41.022,-37.884Zm0.965,25.41c7.764,-0.295 14.358,5.816 14.653,13.58c0.295,7.764 -5.816,14.357 -13.58,14.652c-7.764,0.295 -14.358,-5.816 -14.653,-13.58c-0.295,-7.764 5.816,-14.357 13.58,-14.652Z" style="fill:#dda740;fill-rule:nonzero;"/></g></g></g></svg>