<?xml version="1.0" encoding="UTF-8" standalone="no"?>
<!DOCTYPE svg PUBLIC "-//W3C//DTD SVG 1.1//EN" "http://www.w3.org/Graphics/SVG/1.1/DTD/svg11.dtd">
<svg width="100%" height="100%" viewBox="0 0 1500 1050" version="1.1" xmlns="http://www.w3.org/2000/svg" xmlns:xlink="http://www.w3.org/1999/xlink" xml:space="preserve" xmlns:serif="http://www.serif.com/" style="fill-rule:evenodd;clip-rule:evenodd;stroke-linejoin:round;stroke-miterlimit:2;">
    <g transform="matrix(1,0,0,1,-56.6556,-14.8727)">
        <g>
            <g transform="matrix(1,2.44929e-16,-2.44929e-16,1,50.2423,55.5899)">
                <g transform="matrix(232.951,4.64173e-16,4.64173e-16,234.846,380.696,519.219)">
                    <path d="M0.091,-0.055C0.054,-0.098 0.035,-0.153 0.035,-0.222C0.035,-0.291 0.054,-0.346 0.091,-0.389C0.128,-0.432 0.177,-0.453 0.237,-0.453C0.286,-0.453 0.326,-0.44 0.357,-0.414C0.388,-0.388 0.407,-0.353 0.415,-0.31L0.338,-0.31C0.333,-0.334 0.321,-0.353 0.304,-0.367C0.286,-0.38 0.264,-0.387 0.237,-0.387C0.199,-0.387 0.169,-0.372 0.146,-0.341C0.123,-0.31 0.111,-0.271 0.111,-0.222C0.111,-0.173 0.123,-0.134 0.146,-0.103C0.169,-0.072 0.199,-0.057 0.237,-0.057C0.264,-0.057 0.286,-0.064 0.304,-0.078C0.321,-0.091 0.333,-0.11 0.338,-0.134L0.415,-0.134C0.407,-0.091 0.388,-0.056 0.357,-0.03C0.326,-0.004 0.286,0.009 0.237,0.009C0.177,0.009 0.128,-0.012 0.091,-0.055Z" style="fill:white;fill-rule:nonzero;"/>
                </g>
                <g transform="matrix(200,0,0,200,635.955,522.992)">
                    <path d="M0.067,0L0.067,-0.444L0.142,-0.444L0.142,-0.388C0.156,-0.407 0.174,-0.422 0.198,-0.435C0.221,-0.447 0.246,-0.453 0.273,-0.453C0.322,-0.453 0.361,-0.438 0.388,-0.409C0.415,-0.38 0.429,-0.34 0.429,-0.291L0.429,0L0.353,0L0.353,-0.279C0.353,-0.311 0.345,-0.337 0.329,-0.356C0.312,-0.375 0.288,-0.384 0.255,-0.384C0.229,-0.384 0.206,-0.376 0.185,-0.361C0.164,-0.345 0.15,-0.325 0.142,-0.301L0.142,0L0.067,0Z" style="fill:white;fill-rule:nonzero;"/>
                </g>
                <g transform="matrix(200,0,0,200,733.755,522.992)">
                    <path d="M0.347,-0.133L0.418,-0.133C0.41,-0.09 0.39,-0.055 0.359,-0.029C0.328,-0.004 0.288,0.009 0.239,0.009C0.178,0.009 0.129,-0.012 0.092,-0.055C0.054,-0.097 0.035,-0.152 0.035,-0.221C0.035,-0.288 0.054,-0.344 0.091,-0.388C0.128,-0.431 0.177,-0.453 0.237,-0.453C0.296,-0.453 0.342,-0.433 0.375,-0.394C0.408,-0.354 0.424,-0.301 0.424,-0.235L0.424,-0.208L0.11,-0.208C0.111,-0.161 0.123,-0.124 0.147,-0.097C0.17,-0.069 0.201,-0.055 0.239,-0.055C0.267,-0.055 0.291,-0.062 0.31,-0.076C0.329,-0.089 0.341,-0.108 0.347,-0.133ZM0.238,-0.389C0.205,-0.389 0.177,-0.378 0.154,-0.356C0.131,-0.334 0.117,-0.304 0.112,-0.265L0.348,-0.265C0.347,-0.3 0.338,-0.33 0.319,-0.354C0.3,-0.377 0.273,-0.389 0.238,-0.389Z" style="fill:white;fill-rule:nonzero;"/>
                </g>
                <g transform="matrix(200,0,0,200,825.155,522.992)">
                    <path d="M0.295,-0.446L0.295,-0.369C0.283,-0.377 0.266,-0.381 0.245,-0.381C0.221,-0.381 0.2,-0.374 0.181,-0.359C0.162,-0.344 0.149,-0.324 0.142,-0.298L0.142,0L0.067,0L0.067,-0.444L0.142,-0.444L0.142,-0.386C0.152,-0.405 0.167,-0.421 0.187,-0.434C0.206,-0.447 0.228,-0.453 0.252,-0.453C0.271,-0.453 0.286,-0.451 0.295,-0.446Z" style="fill:white;fill-rule:nonzero;"/>
                </g>
                <g transform="matrix(200,0,0,200,570.872,522.992)">
                    <path d="M0.295,-0.446L0.295,-0.369C0.283,-0.377 0.266,-0.381 0.245,-0.381C0.221,-0.381 0.2,-0.374 0.181,-0.359C0.162,-0.344 0.149,-0.324 0.142,-0.298L0.142,0L0.067,0L0.067,-0.444L0.142,-0.444L0.142,-0.386C0.152,-0.405 0.167,-0.421 0.187,-0.434C0.206,-0.447 0.228,-0.453 0.252,-0.453C0.271,-0.453 0.286,-0.451 0.295,-0.446Z" style="fill:white;fill-rule:nonzero;"/>
                </g>
                <g transform="matrix(192.306,9.49127e-15,9.49127e-15,231.057,884.443,522.992)">
                    <path d="M0.418,0L0.331,0L0.179,-0.401L0.179,0L0.059,0L0.088,-0.614L0.25,-0.624L0.375,-0.181L0.548,-0.634L0.756,-0.585L0.688,0L0.567,0L0.567,-0.401L0.418,0Z" style="fill:white;fill-rule:nonzero;"/>
                </g>
                <g transform="matrix(200,0,0,200,1035.18,524.781)">
                    <path d="M0.326,-0.146L0.441,-0.146C0.433,-0.097 0.412,-0.059 0.378,-0.032C0.343,-0.004 0.298,0.01 0.243,0.01C0.178,0.01 0.126,-0.012 0.086,-0.055C0.046,-0.098 0.026,-0.154 0.026,-0.223C0.026,-0.29 0.046,-0.346 0.086,-0.391C0.127,-0.435 0.178,-0.457 0.241,-0.457C0.305,-0.457 0.355,-0.437 0.391,-0.397C0.426,-0.356 0.444,-0.302 0.444,-0.235L0.444,-0.197L0.146,-0.197C0.148,-0.164 0.158,-0.138 0.175,-0.118C0.192,-0.1 0.215,-0.09 0.243,-0.09C0.288,-0.09 0.316,-0.109 0.326,-0.146ZM0.242,-0.356C0.191,-0.356 0.16,-0.328 0.149,-0.272L0.322,-0.272C0.321,-0.297 0.314,-0.317 0.3,-0.333C0.286,-0.348 0.267,-0.356 0.242,-0.356Z" style="fill:white;fill-rule:nonzero;"/>
                </g>
            </g>
            <g id="icons8_location" transform="matrix(1.55818,0.137413,-0.137413,1.55818,572.89,539.873)">
                <g transform="matrix(1,0,0,1,-64,-64)">
                    <g transform="matrix(0.828525,-0.104897,0.104897,0.828525,-8.76223,35.2245)">
                        <path d="M89,2C73.8,2 61.5,14.3 61,29.9C60.6,44.4 74.501,63.5 82.801,73.5C84.401,75.4 86.6,76.4 89,76.4C91.4,76.4 93.599,75.3 95.199,73.5C103.499,63.4 117.5,44.4 117,29.9C116.5,14.3 104.2,2 89,2ZM89,20C94.5,20 99,24.5 99,30C99,35.5 94.5,40 89,40C83.5,40 79,35.5 79,30C79,24.5 83.5,20 89,20Z" style="fill:rgb(221,167,64);fill-rule:nonzero;"/>
                    </g>
                </g>
            </g>
        </g>
    </g>
</svg>
