<?xml version="1.0" encoding="UTF-8" standalone="no"?>
<!DOCTYPE svg PUBLIC "-//W3C//DTD SVG 1.1//EN" "http://www.w3.org/Graphics/SVG/1.1/DTD/svg11.dtd">
<svg width="100%" height="100%" viewBox="0 0 1500 1050" version="1.1" xmlns="http://www.w3.org/2000/svg" xmlns:xlink="http://www.w3.org/1999/xlink" xml:space="preserve" xmlns:serif="http://www.serif.com/" style="fill-rule:evenodd;clip-rule:evenodd;stroke-linejoin:round;stroke-miterlimit:2;">
    <g transform="matrix(1.69152,0,0,1.69152,750,525)">
        <g id="icons8_location" transform="matrix(1,0,0,1,-64,-64)">
            <g transform="matrix(0.828525,-0.104897,0.104897,0.828525,-8.76223,35.2245)">
                <path d="M89,2C73.8,2 61.5,14.3 61,29.9C60.6,44.4 74.501,63.5 82.801,73.5C84.401,75.4 86.6,76.4 89,76.4C91.4,76.4 93.599,75.3 95.199,73.5C103.499,63.4 117.5,44.4 117,29.9C116.5,14.3 104.2,2 89,2ZM89,20C94.5,20 99,24.5 99,30C99,35.5 94.5,40 89,40C83.5,40 79,35.5 79,30C79,24.5 83.5,20 89,20Z" style="fill:rgb(221,167,64);fill-rule:nonzero;"/>
            </g>
        </g>
        <g id="icons8_location1" serif:id="icons8_location">
        </g>
    </g>
</svg>
